:SAMPLES-PER-SECOND 30
:FULLY-SPECIFIED
:DEGREES
319
root  27.3443 39.4528 -0.640912 -5.21886 2.35701 0.737473
RightUpLeg  -2.60227 -33.6301 -3.75167
RightLeg  24.7283 -19.2819 -7.06087
RightFoot  -14.1574 -0.166937 -2.89252
RightToes  0.00048216 0.542163 -0.142577
Spine  8.70953 2.68996 15.2631
Spine1  12.9797 6.18676 -6.20556
HEad  19.1597 -14.8171 -0.852825
LeftShoulder1  11.199 -16.2199 -49.5742
LeftArm  -24.9687 20.6406 -15.164
LeftForeArm  -2.56523 -51.3222 -14.2802
LeftHand  -0.25398 0.0180481 5.50724
RightShoulder  7.14575 13.2095 36.741
RightArm  46.995 29.7482 64.3927
RightForeArm  -47.0222 24.1645 7.13437
RightHand  -0.644786 -0.879612 -16.4642
LeftUpLeg  -10.5703 10.1042 12.3476
LeftLeg  17.3687 4.18674 1.86289
LeftFoot  -2.40888 0.0907804 -0.949644
LeftToes  1.06246e-005 4.65855e-005 -8.185e-006
320
root  26.7044 39.4514 -0.717316 -5.28069 -0.714142 0.973648
RightUpLeg  -2.81071 -29.0916 -2.46904
RightLeg  24.4603 -21.3632 -6.38065
RightFoot  -14.5849 -0.222365 -4.3899
RightToes  0.00048216 0.542163 -0.142577
Spine  9.67625 2.89193 16.6442
Spine1  12.8448 6.95883 -7.33057
HEad  18.6952 -19.9342 -0.879651
LeftShoulder1  11.2228 -16.1721 -49.7997
LeftArm  -25.1074 20.5915 -15.5793
LeftForeArm  -2.8701 -50.8928 -14.0758
LeftHand  -0.25398 0.0180481 5.50724
RightShoulder  7.04594 13.0867 36.4643
RightArm  46.7465 29.6468 64.2311
RightForeArm  -46.5456 24.8875 7.1707
RightHand  -0.667838 -0.780275 -16.7026
LeftUpLeg  -12.4305 7.30367 10.8163
LeftLeg  19.8262 -1.50342 -0.259073
LeftFoot  -1.95836 0.312571 -3.65318
LeftToes  1.06246e-005 4.65855e-005 -8.185e-006
321
root  26.0699 39.5185 -0.752224 -4.94766 -4.2018 1.68732
RightUpLeg  -2.87605 -23.8316 -1.70472
RightLeg  23.2704 -23.7398 -5.13925
RightFoot  -14.5992 -0.251347 -5.36972
RightToes  0.00048216 0.542163 -0.142577
Spine  10.2731 3.27408 16.9501
Spine1  12.5545 7.66459 -8.26869
HEad  18.4785 -24.326 -1.13429
LeftShoulder1  11.2287 -16.1009 -50.0058
LeftArm  -25.5446 21.5237 -16.1709
LeftForeArm  -2.5536 -51.2942 -14.2652
LeftHand  -0.25398 0.0180481 5.50724
RightShoulder  6.93666 13.0059 36.0217
RightArm  47.3582 29.4801 64.2898
RightForeArm  -46.6 25.1829 7.2558
RightHand  -0.625676 -1.00937 -16.4268
LeftUpLeg  -14.0693 6.17848 8.16623
LeftLeg  21.0051 -1.64519 -0.372293
LeftFoot  -1.50592 0.501223 -5.72523
LeftToes  1.06246e-005 4.65855e-005 -8.185e-006
322
root  25.4368 39.6059 -0.747657 -4.60071 -7.85022 2.61555
RightUpLeg  -2.63776 -19.0204 -1.36343
RightLeg  21.398 -25.2323 -3.34692
RightFoot  -14.5306 -0.266138 -6.02985
RightToes  0.00048216 0.542163 -0.142577
Spine  10.7246 3.60682 16.5994
Spine1  12.2402 8.17698 -9.09413
HEad  18.0141 -27.8524 -1.2088
LeftShoulder1  11.188 -15.989 -50.1102
LeftArm  -25.4571 23.1562 -16.518
LeftForeArm  -2.1072 -52.3829 -14.8247
LeftHand  -0.25398 0.0180481 5.50724
RightShoulder  6.83036 12.9408 35.5523
RightArm  48.3209 29.2238 64.73
RightForeArm  -46.5424 25.1617 7.24948
RightHand  -0.537577 -1.48738 -15.7585
LeftUpLeg  -15.4591 4.92975 4.91918
LeftLeg  21.0861 1.71515 1.0436
LeftFoot  -1.2166 0.476508 -5.30745
LeftToes  1.06246e-005 4.65855e-005 -8.185e-006
323
root  24.8007 39.6887 -0.710814 -4.43759 -11.7935 3.55374
RightUpLeg  -2.2026 -15.3274 -1.03165
RightLeg  19.3194 -25.304 -1.60103
RightFoot  -14.4752 -0.294036 -7.16962
RightToes  0.00048216 0.542163 -0.142577
Spine  11.1837 3.94116 16.1532
Spine1  12.0725 8.74248 -10.0765
HEad  17.1118 -30.5149 -0.955018
LeftShoulder1  11.0838 -15.8526 -49.9942
LeftArm  -24.6782 24.9031 -16.7106
LeftForeArm  -1.72492 -53.5316 -15.4562
LeftHand  -0.25398 0.0180481 5.50724
RightShoulder  6.74582 12.8868 35.1808
RightArm  48.8787 28.8896 65.2387
RightForeArm  -45.6931 25.1124 7.21712
RightHand  -0.462284 -1.86916 -14.9322
LeftUpLeg  -16.5251 3.77542 1.57527
LeftLeg  20.2379 4.45479 2.13363
LeftFoot  -0.525142 0.333213 -3.49138
LeftToes  1.06246e-005 4.65855e-005 -8.185e-006
324
root  24.1536 39.7467 -0.648221 -4.35248 -16.0129 4.4912
RightUpLeg  -1.75691 -12.8189 -0.642487
RightLeg  17.4589 -24.1756 -0.228297
RightFoot  -14.4521 -0.332133 -8.61922
RightToes  0.00048216 0.542163 -0.142577
Spine  11.6005 4.34543 15.7154
Spine1  11.9107 9.43043 -11.2276
HEad  16.0264 -32.2406 -0.48254
LeftShoulder1  10.927 -15.7302 -49.6021
LeftArm  -23.783 26.6078 -17.0819
LeftForeArm  -1.29869 -54.4167 -15.9612
LeftHand  -0.25398 0.0180481 5.50724
RightShoulder  6.71798 12.8617 35.0754
RightArm  49.1997 28.556 65.4715
RightForeArm  -44.4369 25.3219 7.23604
RightHand  -0.416056 -2.06071 -14.1463
LeftUpLeg  -17.428 3.29286 -1.66405
LeftLeg  18.5029 4.2899 1.92667
LeftFoot  0.365946 0.340916 -3.33359
LeftToes  1.06246e-005 4.65855e-005 -8.185e-006
325
root  23.4869 39.7595 -0.556093 -4.22826 -20.2979 5.34346
RightUpLeg  -1.31453 -11.2911 -0.257839
RightLeg  15.8727 -21.95 1.03089
RightFoot  -14.5423 -0.365603 -9.54977
RightToes  0.00048216 0.542163 -0.142577
Spine  11.9076 4.75996 15.3538
Spine1  11.5699 10.1182 -12.4965
HEad  14.9949 -33.1065 0.0731914
LeftShoulder1  10.7496 -15.628 -49.0574
LeftArm  -23.2997 28.358 -17.7218
LeftForeArm  -0.820382 -55.2034 -16.4247
LeftHand  -0.25398 0.0180481 5.50724
RightShoulder  6.7447 12.8648 35.2284
RightArm  49.6315 28.2793 65.4997
RightForeArm  -43.3759 25.8047 7.32503
RightHand  -0.390364 -2.14968 -13.5956
LeftUpLeg  -18.2767 3.58388 -4.70746
LeftLeg  16.0977 1.3991 0.799755
LeftFoot  1.17485 0.58525 -5.39372
LeftToes  1.06246e-005 4.65855e-005 -8.185e-006
326
root  22.7838 39.7426 -0.435634 -4.2114 -24.5474 6.04315
RightUpLeg  -0.618837 -10.2333 0.190912
RightLeg  14.3842 -18.884 2.28072
RightFoot  -14.6422 -0.391676 -10.1411
RightToes  0.00048216 0.542163 -0.142577
Spine  12.1993 5.14712 15.0826
Spine1  11.2147 10.786 -13.7779
HEad  14.0525 -33.3563 0.610488
LeftShoulder1  10.5715 -15.5056 -48.5524
LeftArm  -23.2877 30.1098 -18.475
LeftForeArm  -0.318646 -56.2096 -17.0597
LeftHand  -0.25398 0.0180481 5.50724
RightShoulder  6.77629 12.8835 35.3715
RightArm  50.0766 28.1018 65.65
RightForeArm  -42.5095 26.3934 7.44532
RightHand  -0.380186 -2.17258 -13.3177
LeftUpLeg  -18.7433 4.12415 -7.32893
LeftLeg  13.1328 -2.21575 -0.597058
LeftFoot  2.19334 0.838697 -7.18409
LeftToes  1.06246e-005 4.65855e-005 -8.185e-006
327
root  22.025 39.7203 -0.296618 -4.55 -28.6457 6.73706
RightUpLeg  0.479399 -9.3229 0.705561
RightLeg  13.1239 -15.8534 3.12889
RightFoot  -14.6409 -0.430313 -11.474
RightToes  0.00048216 0.542163 -0.142577
Spine  12.5359 5.53943 14.619
Spine1  11.116 11.4504 -14.7616
HEad  13.2965 -33.2003 1.0603
LeftShoulder1  10.3929 -15.331 -48.1711
LeftArm  -23.5472 31.6992 -19.1846
LeftForeArm  0.310243 -57.4753 -17.9146
LeftHand  -0.25398 0.0180481 5.50724
RightShoulder  6.78697 12.9148 35.3576
RightArm  50.4405 28.1062 66.0342
RightForeArm  -41.6015 26.9775 7.56444
RightHand  -0.368148 -2.22477 -13.0816
LeftUpLeg  -18.5208 3.12376 -8.8548
LeftLeg  9.84377 -3.02358 -2.19101
LeftFoot  3.37178 1.01007 -7.96902
LeftToes  1.06246e-005 4.65855e-005 -8.185e-006
328
root  21.1964 39.6645 -0.136679 -5.16988 -32.316 7.47911
RightUpLeg  1.74666 -8.7831 1.18827
RightLeg  12.5494 -13.4719 3.44148
RightFoot  -14.8107 -0.508884 -13.4205
RightToes  0.00048216 0.542163 -0.142577
Spine  12.7463 5.94322 13.8919
Spine1  11.2089 12.0302 -15.3491
HEad  12.9188 -32.811 1.46386
LeftShoulder1  10.2218 -15.1424 -47.8536
LeftArm  -23.8726 32.9989 -19.7651
LeftForeArm  1.0423 -58.6775 -18.7798
LeftHand  -0.25398 0.0180481 5.50724
RightShoulder  6.78725 12.9354 35.3083
RightArm  50.7914 28.2658 66.5048
RightForeArm  -40.6505 27.5874 7.68991
RightHand  -0.336138 -2.44622 -12.7549
LeftUpLeg  -17.9178 1.4241 -9.68215
LeftLeg  7.17741 -1.43352 -3.68917
LeftFoot  3.92673 1.34424 -10.1994
LeftToes  1.06246e-005 4.65855e-005 -8.185e-006
329
root  20.2961 39.5397 0.0528087 -5.755 -35.4361 8.05411
RightUpLeg  2.99654 -8.80465 1.6112
RightLeg  12.7148 -11.1212 3.68656
RightFoot  -15.3646 -0.608216 -14.3076
RightToes  0.00048216 0.542163 -0.142577
Spine  12.7194 6.31663 13.31
Spine1  11.299 12.5465 -15.9353
HEad  12.904 -32.3891 1.94913
LeftShoulder1  10.0665 -15.0121 -47.4516
LeftArm  -24.164 34.0608 -20.2058
LeftForeArm  1.62231 -59.5785 -19.4755
LeftHand  -0.25398 0.0180481 5.50724
RightShoulder  6.76071 12.9009 35.2347
RightArm  51.0703 28.3548 67.007
RightForeArm  -39.7993 28.3485 7.85828
RightHand  -0.300658 -2.75069 -12.5996
LeftUpLeg  -17.305 1.28291 -10.8406
LeftLeg  6.31076 -0.988041 -4.54549
LeftFoot  3.70547 1.77859 -13.5816
LeftToes  1.06246e-005 4.65855e-005 -8.185e-006
330
root  19.3284 39.3767 0.261247 -6.34204 -38.2921 8.46367
RightUpLeg  4.38104 -9.47502 1.9183
RightLeg  13.2892 -7.70425 4.13937
RightFoot  -16.0243 -0.669464 -13.6639
RightToes  0.00048216 0.542163 -0.142577
Spine  12.6686 6.6861 12.9193
Spine1  11.4452 13.1882 -16.709
HEad  12.9835 -32.0207 2.61538
LeftShoulder1  9.90727 -14.9326 -46.8906
LeftArm  -24.5227 35.1706 -20.5467
LeftForeArm  2.10218 -60.4039 -20.1609
LeftHand  -0.25398 0.0180481 5.50724
RightShoulder  6.68707 12.8209 34.9902
RightArm  51.3865 28.2293 67.6388
RightForeArm  -39.2082 29.3314 8.0952
RightHand  -0.294322 -2.86966 -12.8694
LeftUpLeg  -16.5621 1.94977 -12.3061
LeftLeg  7.08939 -2.15825 -4.68469
LeftFoot  3.74885 1.66132 -12.6991
LeftToes  1.06246e-005 4.65855e-005 -8.185e-006
